<?xml version="1.0" encoding="UTF-8"?>
<svg width="119.66407px" height="40px" viewBox="0 0 140 42" version="1.1" xmlns="http://www.w3.org/2000/svg" xmlns:xlink="http://www.w3.org/1999/xlink">
    <!-- Generator: Sketch 51.1 (57501) - http://www.bohemiancoding.com/sketch -->
    <title>ENDownload_on_the_App_Store_Badge_US-UK_RGB_blk_092917</title>
    <desc>Created with Sketch.</desc>
    <defs></defs>
    <g id="Page-1" stroke="none" stroke-width="1" fill="none" fill-rule="evenodd">
        <g id="ENDownload_on_the_App_Store_Badge_US-UK_RGB_blk_092917" fill-rule="nonzero">
            <g id="Group">
                <g id="Shape">
                    <path d="M128.490565,0 L11.1237933,0 C10.6959767,0 10.2732933,0 9.84660833,0.00233333333 C9.48943333,0.00466666667 9.135105,0.011445 8.7745,0.01715 C7.99109929,0.0263687709 7.20954088,0.0952889699 6.43661667,0.223311667 C5.66477809,0.354121399 4.91711794,0.60073503 4.21892333,0.954811667 C3.52158265,1.31188366 2.88440252,1.77586212 2.33049833,2.329915 C1.77368625,2.88240983 1.30954038,3.52101911 0.955908333,4.22118667 C0.601300282,4.91996064 0.355413915,5.66876134 0.226741667,6.44172667 C0.096846098,7.21371572 0.0269481108,7.9946073 0.017675,8.77739333 C0.00684833333,9.13509333 0.005705,9.49398333 0,9.85173 L0,36.8183667 C0.005705,37.1806167 0.00684833333,37.53155 0.017675,37.8939167 C0.0269509544,38.6766639 0.0968489428,39.4575165 0.226741667,40.2294667 C0.355058612,41.0028839 0.600959518,41.7521144 0.955908333,42.45115 C1.30937981,43.1490534 1.77359095,43.7850772 2.33049833,44.3345 C2.88230229,44.8910164 3.51989427,45.3553105 4.21892333,45.70965 C4.91711263,46.0646743 5.66469218,46.3127558 6.43661667,46.4455833 C7.20967228,46.5725805 7.99115031,46.6415287 8.7745,46.65185 C9.135105,46.6597833 9.48943333,46.6643333 9.84660833,46.6643333 C10.2732817,46.6666667 10.696,46.6666667 11.1237933,46.6666667 L128.490565,46.6666667 C128.909865,46.6666667 129.335932,46.6666667 129.755232,46.6643333 C130.110715,46.6643333 130.475298,46.6597833 130.830782,46.65185 C131.61265,46.6420777 132.392657,46.573125 133.164115,46.4455833 C133.93853,46.3118208 134.688789,46.0638049 135.390348,45.70965 C136.088747,45.3551054 136.72575,44.8908239 137.277082,44.3345 C137.832552,43.7829254 138.297754,43.1473668 138.655615,42.45115 C139.0079,41.7516059 139.25146,41.0024352 139.377898,40.2294667 C139.507999,39.4574106 139.580377,38.6767316 139.594432,37.8939167 C139.598982,37.53155 139.598982,37.1806167 139.598982,36.8183667 C139.608082,36.3945167 139.608082,35.973 139.608082,35.5422667 L139.608082,11.125485 C139.608082,10.69824 139.608082,10.2744133 139.598982,9.85173 C139.598982,9.49398333 139.598982,9.13509333 139.594432,8.77734667 C139.58038,7.99449285 139.508002,7.21377495 139.377898,6.44168 C139.251108,5.66916186 139.007562,4.92042049 138.655615,4.22114 C137.93546,2.81772876 136.793502,1.67536296 135.390348,0.954706667 C134.688787,0.601495277 133.938447,0.354947145 133.164115,0.223206667 C132.392791,0.0946199137 131.612703,0.0256757257 130.830782,0.0169866667 C130.475298,0.0112933333 130.110715,0.00445666667 129.755232,0.00218166667 C129.335932,-0.000151666667 128.909865,-0.000151666667 128.490565,-0.000151666667 L128.490565,0 Z" fill="#A6A6A6"></path>
                    <path d="M9.85230167,45.6458333 C9.49684167,45.6458333 9.14996833,45.6412833 8.79729667,45.63335 C8.06670873,45.6238309 7.33782837,45.5602292 6.61663333,45.4430667 C5.94415535,45.3272495 5.29270495,45.1118086 4.68377,44.80385 C4.08041865,44.4984431 3.53011373,44.097985 3.05393667,43.6178167 C2.57086705,43.1433045 2.16868952,42.5929513 1.86334167,41.9885667 C1.55462914,41.380254 1.34098169,40.7282162 1.22984167,40.0551667 C1.10982008,39.3319674 1.04488344,38.6006988 1.03559167,37.8676667 C1.028195,37.6216167 1.01851167,36.8023833 1.01851167,36.8023833 L1.01851167,9.85173 C1.01851167,9.85173 1.028825,9.045085 1.03565,8.8081 C1.0445468,8.07622906 1.10910584,7.34609528 1.22876833,6.62401833 C1.34011351,5.94912509 1.55392635,5.29520701 1.862805,4.68490167 C2.16703063,4.08093449 2.56697535,3.53017034 3.047135,3.05396 C3.52675497,2.57322499 4.07882021,2.17070481 4.68319833,1.86107833 C5.29073378,1.5541092 5.94095302,1.34018797 6.61207167,1.22648167 C7.33563522,1.10814216 8.06704598,1.0441621 8.80016667,1.03507833 L9.85287333,1.02083333 L129.749515,1.02083333 L130.814798,1.03565 C131.54125,1.0442824 132.266017,1.10769167 132.982932,1.22533833 C133.660844,1.34047091 134.31784,1.55588479 134.932315,1.86449667 C136.143103,2.48848372 137.128298,3.47569011 137.749815,4.68774833 C138.053764,5.29384049 138.264278,5.94242455 138.374215,6.61148833 C138.495302,7.33948994 138.563071,8.07536139 138.576982,8.81323333 C138.580365,9.14363333 138.580365,9.49853333 138.580365,9.85173 C138.589582,10.28923 138.589582,10.7056483 138.589582,11.125485 L138.589582,35.5422667 C138.589582,35.9661167 138.589582,36.3797 138.580365,36.7966667 C138.580365,37.1760667 138.580365,37.5236167 138.575815,37.8813167 C138.562206,38.6060216 138.495567,39.3287583 138.376432,40.0437333 C138.26757,40.721638 138.055085,41.3787653 137.746432,41.9920667 C137.438925,42.5898913 137.039057,43.1354772 136.561565,43.6087167 C136.08496,44.0914654 135.533683,44.4942665 134.928932,44.8016333 C134.316159,45.1119593 133.66013,45.328197 132.982932,45.4430667 C132.261791,45.5608545 131.532841,45.6244602 130.802198,45.63335 C130.460482,45.6412833 130.102665,45.6458333 129.755232,45.6458333 L128.490565,45.6481667 L9.85230167,45.6458333 Z" fill="#000000"></path>
                </g>
                <g id="_Group_" transform="translate(10.500000, 9.333333)" fill="#FFFFFF">
                    <g id="_Group_2">
                        <g id="_Group_3">
                            <path d="M18.3970267,14.3507933 C18.4225265,12.3715773 19.4601434,10.5433838 21.1463467,9.50672333 C20.0777647,7.98059823 18.352124,7.04769141 16.4899933,6.98943 C14.53088,6.78379333 12.631605,8.16173167 11.6332767,8.16173167 C10.6156283,8.16173167 9.078545,7.00984667 7.42336,7.04390167 C5.24556814,7.11426149 3.26449337,8.32244639 2.20495333,10.2264167 C-0.05138,14.1329067 1.63164167,19.8741317 3.79302,23.0318433 C4.87440333,24.578085 6.13823,26.3052767 7.79192167,26.2440267 C9.41015833,26.1769083 10.0145383,25.2121333 11.9678883,25.2121333 C13.9031083,25.2121333 14.4701433,26.2440267 16.1573883,26.2050833 C17.8938317,26.1768967 18.9878733,24.65197 20.0313167,23.0910867 C20.8082888,21.989333 21.4061676,20.7716553 21.8028067,19.4831583 C19.7404393,18.6108782 18.3994338,16.5900401 18.3970267,14.3507933 Z" id="_Path_"></path>
                            <path d="M15.210125,4.912705 C16.156906,3.77612889 16.6233491,2.31525286 16.5103983,0.840315 C15.0639275,0.992238902 13.7277936,1.68355795 12.7682217,2.77652667 C11.8206885,3.8548872 11.3406704,5.26567146 11.4338933,6.69814833 C12.8997596,6.71324123 14.2915688,6.05517875 15.210125,4.912705 Z" id="_Path_2"></path>
                        </g>
                    </g>
                    <g id="Group" transform="translate(29.166667, 10.500000)">
                        <path d="M9.68598167,11.8295917 L4.16368167,11.8295917 L2.83750833,15.74545 L0.498481667,15.74545 L5.729115,1.25778333 L8.15928167,1.25778333 L13.389915,15.74545 L11.011,15.74545 L9.68598167,11.8295917 Z M4.73561667,10.0226233 L9.11295,10.0226233 L6.95507167,3.667475 L6.894685,3.667475 L4.73561667,10.0226233 Z" id="Shape"></path>
                        <path d="M24.686305,10.464685 C24.686305,13.7470783 22.9294683,15.8559567 20.278265,15.8559567 C18.9078811,15.9276421 17.6170545,15.2098691 16.9548633,14.0079567 L16.9046967,14.0079567 L16.9046967,19.2397333 L14.7365633,19.2397333 L14.7365633,5.18277667 L16.8352333,5.18277667 L16.8352333,6.93961333 L16.87511,6.93961333 C17.5667197,5.7452359 18.8589383,5.02777198 20.2383883,5.07225833 C22.9191667,5.07227 24.686305,7.19140333 24.686305,10.464685 Z M22.457785,10.464685 C22.457785,8.326185 21.3526367,6.92024667 19.6664417,6.92024667 C18.0098683,6.92024667 16.8956083,8.355795 16.8956083,10.464685 C16.8956083,12.5929417 18.0098683,14.018235 19.6664417,14.018235 C21.3526483,14.018235 22.457785,12.6225633 22.457785,10.464685 Z" id="Shape"></path>
                        <path d="M36.3119517,10.464685 C36.3119517,13.7470783 34.555115,15.8559567 31.9039117,15.8559567 C30.5335278,15.9276421 29.2427011,15.2098691 28.58051,14.0079567 L28.5303433,14.0079567 L28.5303433,19.2397333 L26.36221,19.2397333 L26.36221,5.18277667 L28.4608333,5.18277667 L28.4608333,6.93961333 L28.50071,6.93961333 C29.1923247,5.74523663 30.4845483,5.02777692 31.864,5.07227 C34.54486,5.07227 36.3119517,7.19140333 36.3119517,10.464685 Z M34.0834317,10.464685 C34.0834317,8.326185 32.9782833,6.92024667 31.2920883,6.92024667 C29.635515,6.92024667 28.521255,8.355795 28.521255,10.464685 C28.521255,12.5929417 29.635515,14.018235 31.2920883,14.018235 C32.978295,14.018235 34.0834433,12.6225633 34.0834433,10.464685 L34.0834317,10.464685 Z" id="Shape"></path>
                        <path d="M43.9955483,11.7088183 C44.1561983,13.14551 45.5518817,14.0888183 47.45909,14.0888183 C49.2865683,14.0888183 50.6013433,13.1454633 50.6013433,11.8500433 C50.6013433,10.7255283 49.8083717,10.05221 47.9307733,9.59077 L46.053175,9.13845333 C43.39286,8.49587667 42.1578267,7.25173167 42.1578267,5.23285 C42.1578267,2.73317333 44.336215,1.01621333 47.4294683,1.01621333 C50.4908017,1.01621333 52.58946,2.73317333 52.6601017,5.23285 L50.471435,5.23285 C50.3404183,3.78704667 49.1452617,2.91433333 47.39868,2.91433333 C45.6520983,2.91433333 44.4569533,3.79731333 44.4569533,5.08246667 C44.4569533,6.10671833 45.2203033,6.70941833 47.0876467,7.1708 L48.6838333,7.56273 C51.656325,8.26569333 52.8913583,9.45973 52.8913583,11.57884 C52.8913583,14.2892867 50.7323367,15.98688 47.2984167,15.98688 C44.0855217,15.98688 41.9162567,14.3291633 41.7761167,11.7087133 L43.9955483,11.7088183 Z" id="Shape"></path>
                        <path d="M57.5705783,2.6831 L57.5705783,5.18277667 L59.579205,5.18277667 L59.579205,6.89973667 L57.5705783,6.89973667 L57.5705783,12.722815 C57.5705783,13.6274367 57.9727633,14.0489883 58.8557317,14.0489883 C59.0941883,14.0448303 59.3322592,14.0280847 59.56895,13.9988217 L59.56895,15.7055267 C59.1719664,15.7797028 58.7684659,15.8132969 58.3646817,15.80579 C56.2261817,15.80579 55.39219,15.0025633 55.39219,12.95406 L55.39219,6.89973667 L53.85639,6.89973667 L53.85639,5.18277667 L55.3921667,5.18277667 L55.3921667,2.6831 L57.5705783,2.6831 Z" id="Shape"></path>
                        <path d="M60.7425,10.464685 C60.7425,7.14128333 62.6998517,5.05290333 65.7521083,5.05290333 C68.8146083,5.05290333 70.7628483,7.14123667 70.7628483,10.464685 C70.7628483,13.79721 68.8248633,15.8764667 65.7521083,15.8764667 C62.6804383,15.8764667 60.7425,13.7971983 60.7425,10.464685 Z M68.553695,10.464685 C68.553695,8.18490167 67.5089333,6.83936167 65.7520967,6.83936167 C63.99526,6.83936167 62.9516417,8.19515667 62.9516417,10.464685 C62.9516417,12.75358 63.99526,14.0888767 65.7520967,14.0888767 C67.5089333,14.0888767 68.5536483,12.75358 68.5536483,10.464685 L68.553695,10.464685 Z" id="Shape"></path>
                        <path d="M72.5504033,5.18277667 L74.6182733,5.18277667 L74.6182733,6.98061 L74.66844,6.98061 C74.9568121,5.82326314 76.0172613,5.02673682 77.209125,5.07224667 C77.458983,5.07137427 77.7081517,5.0985092 77.951965,5.15314333 L77.951965,7.18113667 C77.6365345,7.08475054 77.3074862,7.04049651 76.9777983,7.05012 C76.3403879,7.02426135 75.7235161,7.27829052 75.289155,7.74550697 C74.854794,8.21272342 74.6463393,8.8464492 74.718525,9.48028667 L74.718525,15.7454267 L72.5503917,15.7454267 L72.5504033,5.18277667 Z" id="Shape"></path>
                        <path d="M87.94835,12.6430617 C87.6566833,14.5605367 85.7893283,15.876455 83.40017,15.876455 C80.327415,15.876455 78.420195,13.8176967 78.420195,10.514805 C78.420195,7.20165833 80.33767,5.05289167 83.30903,5.05289167 C86.23139,5.05289167 88.0691233,7.060375 88.0691233,10.263015 L88.0691233,11.005855 L80.6088383,11.005855 L80.6088383,11.1368717 C80.5391853,11.9232419 80.8107202,12.7016394 81.3543732,13.2740649 C81.8980263,13.8464905 82.6613987,14.1577722 83.4503133,14.12873 C84.5024626,14.2273129 85.4944336,13.6231406 85.8896033,12.64305 L87.94835,12.6430617 Z M80.6190728,9.490565 L85.8998467,9.49055333 C85.939193,8.78394707 85.6819793,8.09296026 85.1901751,7.58407014 C84.6983708,7.07518001 84.0165676,6.79452715 83.30903,6.80972833 C82.5958954,6.8054726 81.9106058,7.08625707 81.4054798,7.58967212 C80.9003537,8.09308717 80.6172457,8.77742007 80.6190728,9.490565 Z" id="Shape"></path>
                    </g>
                </g>
            </g>
            <g id="_Group_4" transform="translate(40.833333, 9.333333)" fill="#FFFFFF">
                <g id="Group">
                    <path d="M3.29722167,0.852833333 C4.21765932,0.786781545 5.11920764,1.136972 5.75372151,1.80701712 C6.38823537,2.47706224 6.68883352,3.39633559 6.57277833,4.31181333 C6.57277833,6.53577167 5.37079667,7.81414667 3.29722167,7.81414667 L0.78274,7.81414667 L0.78274,0.852833333 L3.29722167,0.852833333 Z M1.86394833,6.82966667 L3.17644833,6.82966667 C3.8342406,6.86898567 4.47473428,6.60981884 4.92008827,6.12412709 C5.36544225,5.63843534 5.56824288,4.97792682 5.47218,4.326 C5.56125385,3.67677862 5.35553268,3.02172058 4.91128292,2.53998964 C4.46703316,2.0582587 3.83074495,1.80026735 3.17644833,1.83657833 L1.86394833,1.83657833 L1.86394833,6.82966667 Z" id="Shape"></path>
                    <path d="M7.79412667,5.18506333 C7.70404498,4.24342923 8.15556427,3.33213059 8.95931858,2.8333636 C9.76307289,2.3345966 10.7800954,2.3345966 11.5838498,2.8333636 C12.3876041,3.33213059 12.8391234,4.24342923 12.7490417,5.18506333 C12.8408373,6.12770931 12.3897301,7.04077544 11.5852631,7.54061618 C10.7807962,8.04045692 9.76237217,8.04045692 8.9579052,7.54061618 C8.15343824,7.04077544 7.70233107,6.12770931 7.79412667,5.18506333 Z M11.6826267,5.18506333 C11.6826267,4.046315 11.1710667,3.38038167 10.2732933,3.38038167 C9.37209,3.38038167 8.86512667,4.046315 8.86512667,5.185075 C8.86512667,6.33294667 9.372125,6.99374667 10.2732933,6.99374667 C11.17109,6.993735 11.6826383,6.32837333 11.6826383,5.18506333 L11.6826267,5.18506333 Z" id="Shape"></path>
                    <polygon id="Shape" points="19.33547 7.81404167 18.259955 7.81404167 17.174185 3.94489667 17.0921567 3.94489667 16.0109367 7.81404167 14.945665 7.81404167 13.4975867 2.56062333 14.549185 2.56062333 15.490265 6.56929 15.5677433 6.56929 16.64782 2.56062333 17.64245 2.56062333 18.7225267 6.56929 18.804555 6.56929 19.7410733 2.56062333 20.777855 2.56062333"></polygon>
                    <path d="M21.9957967,2.56062333 L22.9938333,2.56062333 L22.9938333,3.395175 L23.0713117,3.395175 C23.3407357,2.78072426 23.9703017,2.40485872 24.63902,2.45921667 C25.1568063,2.42028707 25.6642002,2.61892155 26.0179392,2.99903575 C26.3716783,3.37914994 26.5333752,3.89949439 26.457375,4.41315 L26.457375,7.81398333 L25.4205933,7.81398333 L25.4205933,4.67350333 C25.4205933,3.82926833 25.053735,3.40942 24.2869667,3.40942 C23.9357601,3.3930623 23.5949235,3.53089633 23.3538137,3.78678625 C23.1127039,4.04267616 22.9953675,4.39110118 23.0325667,4.740715 L23.0325667,7.81404167 L21.995785,7.81404167 L21.9957967,2.56062333 Z" id="Shape"></path>
                    <polygon id="Shape" points="28.1093983 0.509833333 29.14618 0.509833333 29.14618 7.81403 28.1093983 7.81403"></polygon>
                    <path d="M30.5874217,5.18506333 C30.4974092,4.24336762 30.9489997,3.33204592 31.7528136,2.83327124 C32.5566276,2.33449655 33.5737024,2.33449655 34.3775164,2.83327124 C35.1813303,3.33204592 35.6329208,4.24336762 35.5429083,5.18506333 C35.6345873,6.12774305 35.1833975,7.04078339 34.3788906,7.54060211 C33.5743837,8.04042084 32.5559463,8.04042084 31.7514394,7.54060211 C30.9469325,7.04078339 30.4957427,6.12774305 30.5874217,5.18506333 Z M34.4759217,5.18506333 C34.4759217,4.046315 33.9643617,3.38038167 33.0665883,3.38038167 C32.165385,3.38038167 31.6584217,4.046315 31.6584217,5.185075 C31.6584217,6.33294667 32.16542,6.99374667 33.0665883,6.99374667 C33.9643733,6.993735 34.4759333,6.32837333 34.4759333,5.18506333 L34.4759217,5.18506333 Z" id="Shape"></path>
                    <path d="M36.6343833,6.32837333 C36.6343833,5.38273167 37.33849,4.83757167 38.5883167,4.76009333 L40.011335,4.678065 L40.011335,4.22461667 C40.011335,3.66976167 39.6444767,3.35645333 38.93582,3.35645333 C38.3570483,3.35645333 37.9560067,3.56893833 37.8409267,3.94035833 L36.837185,3.94035833 C36.9431417,3.03801167 37.7919383,2.45924 38.983665,2.45924 C40.3007267,2.45924 41.0435667,3.11490667 41.0435667,4.22461667 L41.0435667,7.81405333 L40.0455183,7.81405333 L40.0455183,7.075775 L39.96349,7.075775 C39.6245134,7.61492239 39.0217026,7.93002377 38.3855267,7.90060833 C37.9395521,7.94699712 37.4947663,7.80256244 37.1611284,7.50301119 C36.8274905,7.20345993 36.6361404,6.77675053 36.6343833,6.32837333 Z M40.011335,5.879475 L40.011335,5.44027167 L38.7284567,5.5223 C38.0049833,5.57071667 37.6768583,5.81681333 37.6768583,6.279945 C37.6768583,6.75276 38.0870117,7.02790667 38.651025,7.02790667 C38.9849087,7.06170484 39.3182141,6.95855423 39.5746405,6.74206819 C39.8310668,6.52558215 39.9886569,6.2142979 40.011335,5.879475 Z" id="Shape"></path>
                    <path d="M42.4061867,5.18506333 C42.4061867,3.52507167 43.259545,2.47347333 44.58685,2.47347333 C45.2570729,2.44259182 45.8847988,2.80171835 46.1978533,3.39514 L46.2753317,3.39514 L46.2753317,0.509833333 L47.3121133,0.509833333 L47.3121133,7.81403 L46.3186267,7.81403 L46.3186267,6.98402833 L46.2365983,6.98402833 C45.8998799,7.57252648 45.2644203,7.92558256 44.5868617,7.90060833 C43.2504333,7.90066667 42.4061867,6.849045 42.4061867,5.18506333 Z M43.4771867,5.18506333 C43.4771867,6.29932333 44.00242,6.96981833 44.8808383,6.96981833 C45.7546717,6.96981833 46.2947333,6.28965167 46.2947333,5.189625 C46.2947333,4.09473167 45.7490017,3.40487 44.8808383,3.40487 C44.0080783,3.40487 43.4771517,4.079915 43.4771517,5.18506333 L43.4771867,5.18506333 Z" id="Shape"></path>
                    <path d="M51.6016667,5.18506333 C51.511585,4.24342923 51.9631043,3.33213059 52.7668586,2.8333636 C53.5706129,2.3345966 54.5876354,2.3345966 55.3913898,2.8333636 C56.1951441,3.33213059 56.6466634,4.24342923 56.5565817,5.18506333 C56.6483773,6.12770931 56.1972701,7.04077544 55.3928031,7.54061618 C54.5883362,8.04045692 53.5699122,8.04045692 52.7654452,7.54061618 C51.9609782,7.04077544 51.5098711,6.12770931 51.6016667,5.18506333 Z M55.4901667,5.18506333 C55.4901667,4.046315 54.9786067,3.38038167 54.0808333,3.38038167 C53.17963,3.38038167 52.6726667,4.046315 52.6726667,5.185075 C52.6726667,6.33294667 53.179665,6.99374667 54.0808333,6.99374667 C54.9786183,6.993735 55.4901667,6.32837333 55.4901667,5.18506333 Z" id="Shape"></path>
                    <path d="M57.9476917,2.56062333 L58.94574,2.56062333 L58.94574,3.395175 L59.0232183,3.395175 C59.2926423,2.78072426 59.9222083,2.40485872 60.5909267,2.45921667 C61.1087129,2.42028707 61.6161068,2.61892155 61.9698459,2.99903575 C62.323585,3.37914994 62.4852819,3.89949439 62.4092817,4.41315 L62.4092817,7.81398333 L61.3725,7.81398333 L61.3725,4.67350333 C61.3725,3.82926833 61.0056417,3.40942 60.2388733,3.40942 C59.8876668,3.3930623 59.5468302,3.53089633 59.3057204,3.78678625 C59.0646105,4.04267616 58.9472742,4.39110118 58.9844733,4.740715 L58.9844733,7.81404167 L57.9476917,7.81404167 L57.9476917,2.56062333 Z" id="Shape"></path>
                    <path d="M68.2676867,1.252685 L68.2676867,2.58455167 L69.405875,2.58455167 L69.405875,3.45784833 L68.2676867,3.45784833 L68.2676867,6.15918333 C68.2676867,6.70947667 68.4944167,6.95044 69.0105267,6.95044 C69.1426582,6.95001713 69.274657,6.94202794 69.405875,6.92651167 L69.405875,7.79011333 C69.2196861,7.8234225 69.0310432,7.84114338 68.8419083,7.84309167 C67.688915,7.84309167 67.2297617,7.43748833 67.2297617,6.424635 L67.2297617,3.45780167 L66.3957817,3.45780167 L66.3957817,2.584505 L67.2297617,2.584505 L67.2297617,1.252685 L68.2676867,1.252685 Z" id="Shape"></path>
                    <path d="M70.822045,0.509833333 L71.849715,0.509833333 L71.849715,3.40485833 L71.9317433,3.40485833 C72.2141091,2.78502999 72.8546935,2.40868547 73.5335767,2.46377833 C74.0484227,2.4357635 74.548948,2.638771 74.8988208,3.01750616 C75.2486936,3.39624133 75.4114724,3.91125658 75.34282,4.42227333 L75.34282,7.81404167 L74.305,7.81404167 L74.305,4.67804167 C74.305,3.83892833 73.9141667,3.41395833 73.1816283,3.41395833 C72.8209288,3.38437595 72.4655623,3.51550612 72.2105327,3.77229242 C71.9555032,4.02907872 71.8268156,4.38533703 71.8588733,4.745825 L71.8588733,7.81401833 L70.8220917,7.81401833 L70.822045,0.509833333 Z" id="Shape"></path>
                    <path d="M81.388125,6.395585 C81.0973999,7.38652773 80.1384487,8.02678688 79.11176,7.91543667 C78.4112512,7.93392856 77.7380233,7.64356915 77.2706996,7.12139769 C76.8033759,6.59922623 76.5892008,5.89803193 76.685,5.20385833 C76.5917453,4.50775556 76.8051179,3.80543769 77.2698393,3.27885478 C77.7345607,2.75227187 78.4049023,2.45323954 79.1071983,2.45922833 C80.56895,2.45922833 81.4507867,3.457895 81.4507867,5.10756167 L81.4507867,5.46933333 L77.7411483,5.46933333 L77.7411483,5.52743333 C77.7083207,5.9172635 77.8414592,6.30285571 78.1078209,6.58938082 C78.3741827,6.87590592 78.7490525,7.03677791 79.1402383,7.03243333 C79.6474722,7.09332713 80.1412296,6.84172188 80.3900767,6.39555 L81.388125,6.395585 Z M77.741125,4.70255333 L80.3946033,4.70255333 C80.4210317,4.34602051 80.2956682,3.99490592 80.0494064,3.73573561 C79.8031446,3.4765653 79.4588871,3.33344226 79.10147,3.34163667 C78.7392107,3.3370854 78.390466,3.47902478 78.1343457,3.73525703 C77.8782255,3.99148928 77.7364386,4.34029602 77.7411483,4.70255333 L77.741125,4.70255333 Z" id="Shape"></path>
                </g>
            </g>
        </g>
    </g>
</svg>